#!OML:ASF I:\Actors\actors\Patient Classification 1\Patient 1\Session 1\Subject1.ASF
:FULLY-SPECIFIED
:DEGREES
758
root 0.533425 17.5395 9.18539 8.76136 -1.29957 -9.47097
lowerback 1.68748 0.930564 5.44321
upperback -8.44127 1.76063 1.5649
thorax -9.80351 0.505043 -1.54876
lowerneck -5.99784 -2.96989 -1.81891
upperneck 32.4784 -6.43013 7.57957
head 11.938 -2.25549 2.41081
rclavicle 1.5704e-014 5.56597e-015
rhumerus 21.9993 2.32878 -44.397
rradius 140.457
rwrist 3.6406
rhand -8.01851 -52.3691
rfingers 7.12502
rthumb 17.891 -81.5661
lclavicle 1.5704e-014 5.56597e-015
lhumerus 30.9248 -1.31394 54.624
lradius 132.629
lwrist 12.9936
lhand -22.0844 -9.48939
lfingers 7.12502
lthumb 4.32731 20.4464
rfemur -6.9934 20.7091 26.3203
rtibia 7.28748
rfoot -11.5914 -19.855
rtoes -0.527358
lfemur 7.01116 -46.8278 -12.3183
ltibia -5.04283
lfoot -22.605 54.0105
ltoes 9.93417
759
root 0.534091 17.54 9.18348 8.79284 -1.31393 -9.45433
lowerback 1.70299 0.910801 5.43021
upperback -8.4163 1.73329 1.56957
thorax -9.78688 0.493643 -1.53417
lowerneck -5.91445 -2.96987 -1.83596
upperneck 32.3126 -6.4293 7.63451
head 11.8556 -2.25738 2.43207
rclavicle 6.26172e-015 -3.97569e-016
rhumerus 21.9935 2.02818 -44.7117
rradius 140.602
rwrist 3.66846
rhand -8.17637 -52.5755
rfingers 7.12502
rthumb 17.7391 -81.7863
lclavicle 6.26172e-015 -3.97569e-016
lhumerus 30.7823 -0.970504 54.8646
lradius 132.936
lwrist 12.2599
lhand -22.5299 -9.40771
lfingers 7.12502
lthumb 3.89709 20.5364
rfemur -7.04574 20.6818 26.2763
rtibia 7.28415
rfoot -11.5719 -19.8123
rtoes -0.551991
lfemur 6.94268 -46.8322 -12.2972
ltibia -5.01787
lfoot -22.6843 54.0089
ltoes 10.0129
760
root 0.534266 17.54 9.18312 8.82026 -1.32913 -9.4335
lowerback 1.69816 0.910228 5.44121
upperback -8.38172 1.73007 1.55631
thorax -9.74475 0.492119 -1.55395
lowerneck -5.81802 -2.9781 -1.8118
upperneck 32.1563 -6.43109 7.63625
head 11.7714 -2.2616 2.42595
rclavicle 9.93923e-016 -1.98785e-015
rhumerus 21.9781 1.73749 -44.9584
rradius 140.661
rwrist 3.68646
rhand -8.25593 -52.6059
rfingers 7.12502
rthumb 17.6626 -81.8237
lclavicle 9.93923e-016 -1.98785e-015
lhumerus 30.708 -0.743648 55.1292
lradius 133.179
lwrist 10.7564
lhand -22.8514 -9.53924
lfingers 7.12502
lthumb 3.58656 20.4103
rfemur -7.07015 20.6577 26.2348
rtibia 7.25443
rfoot -11.5673 -19.7812
rtoes -0.886067
lfemur 6.90881 -46.8579 -12.3053
ltibia -5.00577
lfoot -22.8663 54.0173
ltoes 10.2914
761
root 0.533601 17.5398 9.18367 8.85372 -1.34923 -9.43109
lowerback 1.69086 0.911072 5.47499
upperback -8.35508 1.72998 1.53677
thorax -9.7094 0.489756 -1.59334
lowerneck -5.7687 -2.95782 -1.82911
upperneck 32.082 -6.41227 7.70527
head 11.7332 -2.25038 2.45639
rclavicle -1.00386e-014 2.54444e-014
rhumerus 21.9691 1.51365 -45.1851
rradius 140.663
rwrist 3.68538
rhand -8.19941 -52.5098
rfingers 7.12502
rthumb 17.717 -81.7226
lclavicle -1.00386e-014 2.54444e-014
lhumerus 30.7188 -0.498639 55.3957
lradius 133.312
lwrist 8.70932
lhand -22.9401 -9.65816
lfingers 7.12502
lthumb 3.50097 20.2928
rfemur -7.08118 20.7364 26.2261
rtibia 7.21255
rfoot -11.5664 -19.8296
rtoes -1.16344
lfemur 6.88199 -46.8655 -12.2852
ltibia -5.00671
lfoot -22.8911 54.0169
ltoes 10.3425
762
root 0.533554 17.5393 9.1837 8.90709 -1.39349 -9.48777
lowerback 1.67358 0.896633 5.54496
upperback -8.34153 1.71437 1.55275
thorax -9.68466 0.478156 -1.61333
lowerneck -5.73437 -2.93322 -1.90212
upperneck 32.0266 -6.3827 7.78235
head 11.7069 -2.23956 2.50109
rclavicle 2.85256e-014 -3.18055e-015
rhumerus 22.0723 1.34558 -45.4211
rradius 140.653
rwrist 3.61082
rhand -8.05278 -52.6196
rfingers 7.12502
rthumb 17.8581 -81.8196
lclavicle 2.85256e-014 -3.18055e-015
lhumerus 30.7349 -0.132463 55.6979
lradius 133.434
lwrist 6.88688
lhand -22.901 -9.55351
lfingers 7.12502
lthumb 3.53873 20.3969
rfemur -7.14341 20.7947 26.2714
rtibia 7.21338
rfoot -11.5274 -19.8248
rtoes -1.12793
lfemur 6.86084 -46.9284 -12.1998
ltibia -5.01021
lfoot -23.3286 54.0372
ltoes 10.7325
763
root 0.534036 17.5389 9.18318 8.96316 -1.42606 -9.54751
lowerback 1.6525 0.876587 5.60875
upperback -8.31571 1.69133 1.58688
thorax -9.6451 0.464866 -1.60977
lowerneck -5.7623 -2.92839 -1.9392
upperneck 31.9606 -6.34884 7.73304
head 11.6826 -2.23568 2.49089
rclavicle -1.33186e-014 5.96354e-015
rhumerus 22.2627 1.07879 -45.615
rradius 140.649
rwrist 3.50145
rhand -7.85856 -53.0855
rfingers 7.12502
rthumb 18.0449 -82.2684
lclavicle -1.33186e-014 5.96354e-015
lhumerus 30.8204 0.240182 55.9931
lradius 133.607
lwrist 5.74128
lhand -23.6443 -9.34373
lfingers 7.12502
lthumb 2.82091 20.6174
rfemur -7.22926 20.8044 26.3131
rtibia 7.24793
rfoot -11.4949 -19.7863
rtoes -0.861691
lfemur 6.81369 -46.9811 -12.0937
ltibia -5.01377
lfoot -23.5836 54.0871
ltoes 10.9573
